<svg width="29" height="29" viewBox="0 0 29 29" fill="none" xmlns="http://www.w3.org/2000/svg">
<g clip-path="url(#clip0_262_269)">
<path d="M18.7448 23.7092C18.2991 26.4448 15.3482 25.9113 14.2729 25.1077C13.1977 24.3041 10.7619 23.2792 10.7619 23.2792C10.7619 23.2792 8.27622 22.3609 6.942 22.2131C5.60687 22.0677 3.08618 20.438 4.62728 18.135C6.16838 15.832 8.53472 16.8927 10.5359 13.7579C12.5348 10.6222 15.2405 11.9433 15.2405 11.9433C15.2405 11.9433 18.1121 12.8244 17.4295 16.4798C16.7447 20.1344 19.1928 20.9746 18.7448 23.7092ZM17.8534 12.7196C19.1669 13.7331 21.2665 13.2091 22.5455 11.5502C23.8234 9.89358 23.7961 7.72943 22.4825 6.71592C21.169 5.70236 19.0694 6.22641 17.7905 7.88532C16.5125 9.54194 16.5398 11.7061 17.8534 12.7196ZM24.2666 14.4648C23.0689 13.3179 20.925 13.614 19.4773 15.1271C18.0295 16.6404 17.8263 18.7951 19.0249 19.9396C20.2235 21.0842 22.3665 20.7904 23.8142 19.2772C25.262 17.764 25.4643 15.6116 24.2666 14.4648ZM12.7862 10.7188C14.4378 10.8761 15.9363 9.31443 16.1348 7.2316C16.3334 5.14877 15.1558 3.33075 13.5064 3.17441C11.8571 3.01804 10.3564 4.57878 10.1578 6.66165C9.95932 8.7445 11.1346 10.5616 12.7862 10.7188ZM7.00033 15.1918C8.65846 15.1726 9.98213 13.4603 9.9578 11.3684C9.93346 9.27657 8.57104 7.59351 6.91292 7.61274C5.25482 7.63195 3.93116 9.34425 3.9555 11.4361C3.9789 13.5302 5.34222 15.211 7.00033 15.1918Z" fill="#F460B0"/>
</g>
<defs>
<clipPath id="clip0_262_269">
<rect width="22.0468" height="22.0468" fill="white" transform="translate(8.09668) rotate(21.5464)"/>
</clipPath>
</defs>
</svg>
