<svg width="30" height="30" viewBox="0 0 30 30" fill="none" xmlns="http://www.w3.org/2000/svg">
<circle cx="15" cy="15" r="15" fill="black"/>
<g clip-path="url(#clip0_236_680)">
<path d="M11.742 20.0007C10.7041 20.0007 9.86279 20.8421 9.86279 21.8799C9.86279 22.9177 10.7041 23.759 11.742 23.759C12.7798 23.759 13.6211 22.9177 13.6211 21.8799C13.6212 20.8421 12.7798 20.0007 11.742 20.0007ZM11.742 22.9239C11.1654 22.9239 10.698 22.4565 10.698 21.8799C10.698 21.3033 11.1654 20.8359 11.742 20.8359C12.3185 20.8359 12.7859 21.3033 12.7859 21.8799C12.786 22.4565 12.3185 22.9239 11.742 22.9239Z" fill="white"/>
<path d="M19.6763 20.0007C18.6384 20.0007 17.7971 20.8421 17.7971 21.8799C17.7971 22.9177 18.6385 23.759 19.6763 23.759C20.7141 23.759 21.5555 22.9177 21.5555 21.8799C21.5555 20.8421 20.7141 20.0007 19.6763 20.0007ZM19.6763 22.9239C19.0997 22.9239 18.6323 22.4565 18.6323 21.8799C18.6323 21.3033 19.0997 20.8359 19.6763 20.8359C20.2529 20.8359 20.7203 21.3033 20.7203 21.8799C20.7203 22.4565 20.2529 22.9239 19.6763 22.9239Z" fill="white"/>
<path d="M23.9149 9.03883C23.8279 8.94384 23.7089 8.88437 23.5808 8.87178L9.98806 8.68386L9.61222 7.53546C9.34745 6.76777 8.62856 6.2495 7.81654 6.24091H6.4176C6.18696 6.24091 6 6.42786 6 6.6585C6 6.88914 6.18696 7.0761 6.4176 7.0761H7.81654C8.27059 7.08613 8.6704 7.37768 8.81879 7.80691L11.4705 15.8039L11.2617 16.2841C11.0289 16.8846 11.0988 17.5605 11.4497 18.1006C11.7972 18.6311 12.3818 18.9585 13.0157 18.9776H21.1379C21.3686 18.9776 21.5555 18.7906 21.5555 18.56C21.5555 18.3294 21.3686 18.1424 21.1379 18.1424H13.0156C12.6577 18.1335 12.3281 17.9451 12.1387 17.6413C11.9513 17.3411 11.9128 16.9714 12.0343 16.639L12.2013 16.2632L20.9917 15.3445C21.9573 15.2381 22.7516 14.5359 22.9753 13.5906L23.9776 9.39373C24.0227 9.27287 23.9988 9.13695 23.9149 9.03883ZM22.161 13.4027C22.0254 14.0112 21.5088 14.46 20.8873 14.5093L12.2013 15.4071L10.2595 9.51906L23.0588 9.70697L22.161 13.4027Z" fill="white"/>
</g>
<defs>
<clipPath id="clip0_236_680">
<rect width="18" height="18" fill="white" transform="translate(6 6)"/>
</clipPath>
</defs>
</svg>
