<svg width="31" height="31" viewBox="0 0 31 31" fill="none" xmlns="http://www.w3.org/2000/svg">
<path d="M24.4899 15.0781C24.0527 14.5462 23.4435 14.1866 22.7694 14.0625L23.8079 12.7188C23.8661 12.6454 23.9092 12.561 23.9345 12.4706C23.9598 12.3802 23.9669 12.2856 23.9553 12.1924C23.9438 12.0991 23.9138 12.0092 23.8672 11.9279C23.8206 11.8465 23.7582 11.7754 23.6839 11.7187C23.5353 11.6043 23.3481 11.5532 23.1625 11.5766C22.977 11.6 22.808 11.6959 22.6919 11.8437L21.0489 14.0625H9.82691L8.01341 11.9375C7.88042 11.8077 7.70254 11.7351 7.51741 11.7351C7.33228 11.7351 7.15441 11.8077 7.02141 11.9375C6.9558 12.0029 6.90372 12.0808 6.86817 12.1666C6.83262 12.2524 6.81431 12.3445 6.81431 12.4375C6.81431 12.5305 6.83262 12.6226 6.86817 12.7084C6.90372 12.7942 6.9558 12.8721 7.02141 12.9375L8.02891 14.0625C7.64898 14.1583 7.29169 14.3292 6.97773 14.5652C6.66378 14.8013 6.3994 15.0977 6.19991 15.4375C5.77654 16.122 5.63214 16.945 5.79691 17.7344L6.91291 24.5625C6.99665 25.2682 7.32619 25.9209 7.84282 26.4045C8.35945 26.8881 9.02961 27.1711 9.73391 27.2031H21.2349C21.9269 27.1713 22.5854 26.8932 23.0933 26.4184C23.6013 25.9435 23.9258 25.3026 24.0094 24.6094L25.1409 17.7656C25.1495 17.6199 25.1495 17.4738 25.1409 17.3281C25.186 16.9283 25.1516 16.5234 25.0399 16.1371C24.9281 15.7508 24.7411 15.3908 24.4899 15.0781ZM23.7459 17.5L22.6144 24.4062C22.5722 24.7667 22.4067 25.1011 22.1465 25.3521C21.8863 25.603 21.5475 25.7547 21.1884 25.7812H9.84241C9.47304 25.7607 9.12315 25.6076 8.85594 25.3497C8.58874 25.0918 8.42184 24.7461 8.38541 24.375L7.25391 17.4531C7.19682 17.2398 7.18526 17.0167 7.21999 16.7985C7.25473 16.5804 7.33496 16.3721 7.45541 16.1875C7.69208 15.8113 8.06441 15.5424 8.49391 15.4375H8.66441H22.2734C22.4916 15.4563 22.7039 15.5184 22.8981 15.6203C23.0923 15.7222 23.2645 15.8619 23.4049 16.0312C23.5472 16.1979 23.6548 16.3916 23.7214 16.601C23.788 16.8103 23.8121 17.031 23.7924 17.25C23.7861 17.3348 23.7705 17.4186 23.7459 17.5Z" fill="#DD3D93"/>
<path d="M11.6561 18C11.4683 18.004 11.2892 18.081 11.1563 18.2149C11.0235 18.3489 10.9471 18.5294 10.9431 18.7188V22.8281C10.9431 23.0187 11.0182 23.2016 11.1519 23.3364C11.2857 23.4712 11.467 23.5469 11.6561 23.5469C11.8452 23.5469 12.0266 23.4712 12.1603 23.3364C12.294 23.2016 12.3691 23.0187 12.3691 22.8281V18.75C12.3712 18.6536 12.3544 18.5576 12.3196 18.4678C12.2849 18.3779 12.233 18.2957 12.1668 18.2261C12.1005 18.1564 12.0214 18.1006 11.9337 18.0618C11.8461 18.023 11.7518 18.002 11.6561 18Z" fill="#DD3D93"/>
<path d="M15.3915 18C15.2978 18 15.2051 18.0186 15.1186 18.0547C15.0321 18.0908 14.9535 18.1438 14.8873 18.2105C14.8211 18.2773 14.7686 18.3565 14.7327 18.4437C14.6969 18.5309 14.6785 18.6244 14.6785 18.7188V22.8281C14.7036 22.9986 14.7886 23.1542 14.9181 23.2668C15.0475 23.3793 15.2128 23.4412 15.3837 23.4412C15.5547 23.4412 15.7199 23.3793 15.8493 23.2668C15.9788 23.1542 16.0638 22.9986 16.089 22.8281V18.75C16.0931 18.6543 16.0783 18.5588 16.0453 18.469C16.0123 18.3791 15.9618 18.2969 15.8968 18.227C15.8318 18.1571 15.7537 18.1011 15.6669 18.0621C15.5801 18.0231 15.4865 18.002 15.3915 18Z" fill="#DD3D93"/>
<path d="M19.2201 18C19.042 18.0234 18.8793 18.1136 18.7644 18.2526C18.6494 18.3916 18.5908 18.5693 18.6001 18.75V22.8594C18.6252 23.0298 18.7103 23.1855 18.8397 23.298C18.9692 23.4105 19.1344 23.4724 19.3053 23.4724C19.4763 23.4724 19.6415 23.4105 19.771 23.298C19.9004 23.1855 19.9854 23.0298 20.0106 22.8594V18.75C20.0157 18.6461 19.9984 18.5423 19.9598 18.4457C19.9212 18.3492 19.8623 18.2623 19.7871 18.191C19.712 18.1197 19.6223 18.0657 19.5244 18.0327C19.4265 17.9997 19.3227 17.9886 19.2201 18Z" fill="#DD3D93"/>
<path d="M14.8645 13.3906C14.9313 13.4645 15.0127 13.5236 15.1034 13.564C15.1941 13.6044 15.2923 13.6253 15.3915 13.6253C15.4907 13.6253 15.5888 13.6044 15.6795 13.564C15.7703 13.5236 15.8516 13.4645 15.9185 13.3906L20.274 8.53125C20.3396 8.46586 20.3917 8.38799 20.4272 8.30217C20.4628 8.21634 20.4811 8.12426 20.4811 8.03125C20.4811 7.93824 20.4628 7.84616 20.4272 7.76033C20.3917 7.6745 20.3396 7.59664 20.274 7.53125C20.1403 7.39671 19.9591 7.32115 19.7702 7.32115C19.5813 7.32115 19.4001 7.39671 19.2665 7.53125L16.1355 10.9375V4.51562C16.1505 4.41343 16.1436 4.30915 16.115 4.20992C16.0865 4.11068 16.0371 4.0188 15.9702 3.94056C15.9032 3.86231 15.8204 3.79953 15.7272 3.7565C15.634 3.71346 15.5327 3.69119 15.4302 3.69119C15.3277 3.69119 15.2264 3.71346 15.1332 3.7565C15.0401 3.79953 14.9572 3.86231 14.8902 3.94056C14.8233 4.0188 14.7739 4.11068 14.7454 4.20992C14.7168 4.30915 14.7099 4.41343 14.725 4.51562V11.0937L11.625 7.57812C11.4939 7.46206 11.3251 7.39847 11.1507 7.39939C10.9762 7.4003 10.8082 7.46567 10.6783 7.5831C10.5484 7.70054 10.4658 7.86189 10.446 8.03662C10.4262 8.21136 10.4707 8.38734 10.571 8.53125L14.8645 13.3906Z" fill="#DD3D93"/>
</svg>
