<svg width="20" height="23" viewBox="0 0 20 23" fill="none" xmlns="http://www.w3.org/2000/svg">
<path d="M5.92543 13C5.73757 13.004 5.55851 13.081 5.42564 13.2149C5.29278 13.3489 5.21639 13.5294 5.21243 13.7187V17.8281C5.21243 18.0187 5.28755 18.2016 5.42127 18.3364C5.55498 18.4711 5.73633 18.5469 5.92543 18.5469C6.11453 18.5469 6.29589 18.4711 6.4296 18.3364C6.56331 18.2016 6.63843 18.0187 6.63843 17.8281V13.75C6.64049 13.6536 6.62368 13.5576 6.58896 13.4678C6.55423 13.3779 6.50228 13.2957 6.43607 13.2261C6.36986 13.1564 6.29068 13.1006 6.20306 13.0618C6.11545 13.023 6.02111 13.002 5.92543 13Z" fill="#DD3D93"/>
<path d="M18.7594 10.0781C18.3222 9.54618 17.7131 9.18658 17.0389 9.0625L18.0774 7.71875C18.1357 7.64538 18.1787 7.56101 18.204 7.4706C18.2293 7.38019 18.2364 7.28558 18.2249 7.19236C18.2133 7.09914 18.1833 7.00921 18.1367 6.92786C18.0901 6.84652 18.0278 6.77541 17.9534 6.71875C17.8049 6.60429 17.6176 6.55325 17.4321 6.57663C17.2465 6.60001 17.0775 6.69594 16.9614 6.84375L15.3184 9.0625H4.09644L2.28294 6.9375C2.14995 6.80767 1.97208 6.73508 1.78694 6.73508C1.60181 6.73508 1.42394 6.80767 1.29094 6.9375C1.22533 7.00289 1.17325 7.08075 1.1377 7.16658C1.10215 7.25241 1.08384 7.34449 1.08384 7.4375C1.08384 7.53051 1.10215 7.62259 1.1377 7.70842C1.17325 7.79424 1.22533 7.87211 1.29094 7.9375L2.29844 9.0625C1.91851 9.15834 1.56122 9.32922 1.24727 9.56525C0.93331 9.80127 0.668931 10.0977 0.469444 10.4375C0.0460736 11.122 -0.0983291 11.945 0.0664442 12.7344L1.18244 19.5625C1.26618 20.2682 1.59572 20.9209 2.11235 21.4045C2.62898 21.8881 3.29915 22.1711 4.00344 22.2031H15.5044C16.1965 22.1713 16.8549 21.8932 17.3628 21.4184C17.8708 20.9435 18.1954 20.3026 18.2789 19.6094L19.4104 12.7656C19.419 12.6199 19.419 12.4738 19.4104 12.3281C19.4555 11.9283 19.4212 11.5234 19.3094 11.1371C19.1976 10.7508 19.0107 10.3908 18.7594 10.0781ZM18.0154 12.5L16.8839 19.4062C16.8417 19.7667 16.6763 20.1011 16.416 20.3521C16.1558 20.603 15.8171 20.7547 15.4579 20.7812H4.11194C3.74257 20.7607 3.39268 20.6076 3.12547 20.3497C2.85827 20.0918 2.69137 19.7461 2.65494 19.375L1.52344 12.4531C1.46635 12.2398 1.45479 12.0167 1.48952 11.7985C1.52426 11.5804 1.6045 11.3721 1.72494 11.1875C1.96161 10.8113 2.33394 10.5424 2.76344 10.4375H2.93394H16.5429C16.7611 10.4563 16.9734 10.5184 17.1676 10.6203C17.3618 10.7222 17.5341 10.8619 17.6744 11.0312C17.8167 11.1979 17.9244 11.3916 17.9909 11.601C18.0575 11.8103 18.0817 12.031 18.0619 12.25C18.0556 12.3348 18.04 12.4186 18.0154 12.5Z" fill="#DD3D93"/>
<path d="M9.66094 13C9.5673 13 9.47459 13.0186 9.38808 13.0547C9.30158 13.0908 9.22298 13.1438 9.15677 13.2105C9.09056 13.2773 9.03804 13.3565 9.00221 13.4437C8.96638 13.5309 8.94794 13.6244 8.94794 13.7187V17.8281C8.97307 17.9986 9.05811 18.1542 9.18756 18.2668C9.31701 18.3793 9.48225 18.4412 9.65319 18.4412C9.82412 18.4412 9.98936 18.3793 10.1188 18.2668C10.2483 18.1542 10.3333 17.9986 10.3584 17.8281V13.75C10.3626 13.6543 10.3477 13.5588 10.3147 13.469C10.2817 13.3791 10.2313 13.2969 10.1663 13.227C10.1013 13.1571 10.0231 13.1011 9.93634 13.0621C9.84956 13.0231 9.75592 13.002 9.66094 13Z" fill="#DD3D93"/>
<path d="M13.4894 13C13.3114 13.0234 13.1487 13.1136 13.0337 13.2526C12.9188 13.3916 12.8601 13.5693 12.8694 13.75V17.8594C12.8946 18.0298 12.9796 18.1855 13.1091 18.298C13.2385 18.4105 13.4037 18.4724 13.5747 18.4724C13.7456 18.4724 13.9109 18.4105 14.0403 18.298C14.1698 18.1855 14.2548 18.0298 14.2799 17.8594V13.75C14.285 13.6461 14.2677 13.5423 14.2291 13.4457C14.1905 13.3492 14.1316 13.2623 14.0565 13.191C13.9813 13.1197 13.8917 13.0657 13.7938 13.0327C13.6959 12.9997 13.592 12.9886 13.4894 13Z" fill="#DD3D93"/>
<path d="M5 2L9.71429 7L16 1" stroke="#51C155" stroke-width="1.5" stroke-linecap="round"/>
</svg>
