<svg width="19" height="19" viewBox="0 0 19 19" fill="none" xmlns="http://www.w3.org/2000/svg">
<g clip-path="url(#clip0_235_612)">
<path d="M14.445 12.5689C13.8243 11.9561 13.0494 11.9561 12.4326 12.5689C11.9621 13.0354 11.4916 13.502 11.029 13.9764C10.9025 14.1069 10.7957 14.1346 10.6416 14.0476C10.3371 13.8815 10.0129 13.7471 9.72034 13.5652C8.3563 12.7073 7.21368 11.6042 6.20153 10.3627C5.6994 9.74593 5.25263 9.08566 4.94029 8.34236C4.87703 8.19212 4.88889 8.09327 5.01146 7.97071C5.48195 7.51603 5.94058 7.04949 6.40316 6.58295C7.04762 5.93454 7.04762 5.17543 6.39921 4.52307C6.03152 4.15142 5.66382 3.78767 5.29612 3.41602C4.91657 3.03647 4.54096 2.65296 4.15745 2.27735C3.53672 1.67243 2.76179 1.67244 2.14501 2.28131C1.67056 2.74785 1.21588 3.22625 0.73353 3.68488C0.286759 4.10793 0.0613971 4.62586 0.0139524 5.23078C-0.0611683 6.21526 0.180009 7.14438 0.520029 8.04978C1.21588 9.92385 2.27548 11.5884 3.56044 13.1145C5.29612 15.1783 7.36787 16.8112 9.7915 17.9894C10.8827 18.5192 12.0135 18.9265 13.2431 18.9937C14.0892 19.0411 14.8246 18.8276 15.4137 18.1673C15.817 17.7166 16.2717 17.3054 16.6987 16.8745C17.3312 16.234 17.3352 15.4591 16.7066 14.8265C15.9554 14.0713 15.2002 13.3201 14.445 12.5689Z" fill="black"/>
<path d="M13.6899 9.41775L15.1489 9.16867C14.9196 7.82836 14.287 6.61457 13.3262 5.64986C12.3101 4.63375 11.0251 3.99325 9.60971 3.79556L9.40411 5.26239C10.4993 5.41659 11.4956 5.9108 12.2824 6.69759C13.0257 7.44089 13.512 8.38188 13.6899 9.41775Z" fill="black"/>
<path d="M15.9712 3.07599C14.287 1.39171 12.1559 0.328159 9.80343 0L9.59784 1.46683C11.6301 1.7515 13.4725 2.67272 14.9275 4.12373C16.3073 5.50358 17.2127 7.24717 17.5409 9.16472L18.9998 8.91564C18.6163 6.69365 17.5685 4.67725 15.9712 3.07599Z" fill="black"/>
</g>
<defs>
<clipPath id="clip0_235_612">
<rect width="19" height="19" fill="white"/>
</clipPath>
</defs>
</svg>
