<svg width="17" height="17" viewBox="0 0 17 17" fill="none" xmlns="http://www.w3.org/2000/svg">
<g clip-path="url(#clip0_31_175)">
<path d="M12.9245 11.2458C12.3691 10.6975 11.6758 10.6975 11.1239 11.2458C10.7029 11.6632 10.282 12.0806 9.86807 12.5051C9.75487 12.6219 9.65936 12.6466 9.52139 12.5688C9.249 12.4202 8.95893 12.3 8.69715 12.1372C7.4767 11.3696 6.45435 10.3826 5.54874 9.27184C5.09947 8.71998 4.69973 8.12921 4.42026 7.46415C4.36366 7.32973 4.37427 7.24129 4.48394 7.13163C4.9049 6.72481 5.31526 6.30738 5.72915 5.88995C6.30577 5.30979 6.30577 4.63059 5.72561 4.04689C5.39662 3.71436 5.06763 3.38891 4.73864 3.05638C4.39904 2.71678 4.06297 2.37364 3.71983 2.03757C3.16444 1.49633 2.47108 1.49633 1.91922 2.04111C1.49472 2.45854 1.0879 2.88658 0.65632 3.29693C0.256578 3.67545 0.0549382 4.13887 0.0124878 4.68011C-0.0547255 5.56096 0.161064 6.39228 0.465293 7.20238C1.0879 8.87917 2.03596 10.3685 3.18566 11.734C4.73864 13.5806 6.59231 15.0416 8.76082 16.0957C9.73718 16.5698 10.7489 16.9341 11.8491 16.9943C12.6061 17.0367 13.2641 16.8457 13.7912 16.2549C14.152 15.8517 14.5589 15.4838 14.9409 15.0982C15.5069 14.5251 15.5104 13.8317 14.948 13.2657C14.2758 12.59 13.6002 11.9179 12.9245 11.2458Z" fill="white"/>
<path d="M12.2489 8.42638L13.5542 8.20351C13.3491 7.00429 12.783 5.91826 11.9234 5.0551C11.0143 4.14595 9.86458 3.57287 8.59814 3.396L8.41418 4.70842C9.39408 4.84639 10.2855 5.28858 10.9895 5.99255C11.6546 6.65761 12.0897 7.49954 12.2489 8.42638Z" fill="white"/>
<path d="M14.29 2.75221C12.783 1.24521 10.8763 0.293616 8.77146 0L8.58751 1.31243C10.4058 1.56713 12.0543 2.39138 13.3561 3.68965C14.5907 4.92426 15.4008 6.48431 15.6944 8.20002L16.9998 7.97715C16.6566 5.98905 15.7192 4.18491 14.29 2.75221Z" fill="white"/>
</g>
<defs>
<clipPath id="clip0_31_175">
<rect width="17" height="17" fill="white"/>
</clipPath>
</defs>
</svg>
