<svg width="29" height="24" viewBox="0 0 29 24" fill="none" xmlns="http://www.w3.org/2000/svg">
<path d="M14.7465 13.8624C14.5713 14.0423 14.4582 14.2735 14.4239 14.5222C14.3895 14.771 14.4357 15.0242 14.5557 15.2448L14.5748 15.2803C14.7139 15.5407 14.946 15.7392 15.2248 15.8362C15.5037 15.9332 15.8088 15.9217 16.0795 15.8039L16.3773 15.6759C16.4591 15.6407 16.5475 15.6236 16.6365 15.6257C16.7255 15.6279 16.813 15.6493 16.8929 15.6885L17.1518 15.8151C17.399 15.9361 17.6807 15.9669 17.9482 15.9022C18.2157 15.8375 18.4522 15.6814 18.6168 15.4608C18.7814 15.2402 18.8637 14.969 18.8496 14.6942C18.8354 14.4193 18.7256 14.158 18.5393 13.9555L17.5917 12.9462C17.4674 12.8138 17.3175 12.708 17.1511 12.6352C16.9847 12.5625 16.8053 12.5242 16.6237 12.5228C16.4421 12.5213 16.262 12.5568 16.0945 12.6269C15.927 12.6971 15.7755 12.8005 15.6491 12.931L14.7465 13.8624ZM16.6131 13.0852C16.7196 13.0854 16.825 13.1073 16.9228 13.1496C17.0205 13.1919 17.1086 13.2537 17.1817 13.3313L18.1268 14.3379C18.224 14.4441 18.281 14.5809 18.2881 14.7246C18.2952 14.8683 18.2518 15.01 18.1656 15.1253C18.0794 15.2405 17.9556 15.322 17.8157 15.3557C17.6758 15.3894 17.5285 15.3732 17.3993 15.31L17.1404 15.1834C16.9876 15.1086 16.8205 15.0677 16.6505 15.0635C16.4804 15.0593 16.3115 15.092 16.1553 15.1593L15.8575 15.2873C15.7158 15.349 15.556 15.355 15.41 15.3042C15.2641 15.2534 15.1426 15.1495 15.0698 15.0131L15.0506 14.9776C14.9878 14.8621 14.9636 14.7296 14.9816 14.5994C14.9996 14.4692 15.0588 14.3481 15.1505 14.254L16.053 13.3226C16.1259 13.2477 16.213 13.1881 16.3091 13.1474C16.4053 13.1066 16.5087 13.0855 16.6131 13.0852Z" fill="black"/>
<path d="M15.7006 10.2981C15.1954 10.2981 14.7996 10.7922 14.7996 11.4231C14.7996 12.054 15.1954 12.5481 15.7006 12.5481C16.2058 12.5481 16.6016 12.054 16.6016 11.4231C16.6016 10.7922 16.2058 10.2981 15.7006 10.2981ZM15.7006 11.9852C15.5405 11.9852 15.3621 11.7543 15.3621 11.4227C15.3621 11.0912 15.5405 10.8602 15.7006 10.8602C15.8607 10.8602 16.0391 11.0912 16.0391 11.4227C16.0391 11.7543 15.8607 11.9852 15.7006 11.9852Z" fill="black"/>
<path d="M17.5372 12.47C18.0424 12.47 18.4382 11.9759 18.4382 11.345C18.4382 10.7141 18.0424 10.22 17.5372 10.22C17.032 10.22 16.6362 10.7141 16.6362 11.345C16.6362 11.976 17.032 12.47 17.5372 12.47ZM17.5372 10.7829C17.6973 10.7829 17.8757 11.0138 17.8757 11.3454C17.8757 11.677 17.6973 11.9079 17.5372 11.9079C17.3771 11.9079 17.1987 11.6769 17.1987 11.3454C17.1987 11.0139 17.3771 10.7829 17.5372 10.7829Z" fill="black"/>
<path d="M18.6572 13.5342C18.7259 13.5564 18.7976 13.5676 18.8698 13.5675C19.0465 13.5644 19.2177 13.5048 19.3581 13.3974C19.5604 13.2416 19.7095 13.0269 19.7846 12.7829C19.9677 12.2163 19.7593 11.6588 19.3101 11.5137C18.8609 11.3685 18.3657 11.6985 18.1829 12.265C18.0001 12.8316 18.208 13.389 18.6572 13.5342ZM18.7181 12.438C18.7968 12.1946 18.9702 12.0426 19.0957 12.0426C19.1099 12.0425 19.124 12.0446 19.1375 12.0489C19.263 12.0894 19.3376 12.338 19.2497 12.6098C19.2104 12.7417 19.132 12.8584 19.0247 12.9446C18.9835 12.975 18.9034 13.0224 18.8306 12.999C18.7047 12.9585 18.63 12.7099 18.7179 12.438H18.7181Z" fill="black"/>
<path d="M15.01 12.256C14.9228 12.0159 14.7632 11.8089 14.5532 11.6635C14.3277 11.5141 14.0701 11.477 13.8463 11.5618C13.405 11.7293 13.2247 12.2965 13.4358 12.8532C13.5231 13.0932 13.6827 13.3002 13.8927 13.4456C14.0284 13.5386 14.1885 13.5895 14.3529 13.592C14.4372 13.5921 14.5208 13.577 14.5996 13.5472C15.0409 13.3798 15.2212 12.8127 15.01 12.256ZM14.4 13.0214C14.3285 13.0486 14.2461 13.0051 14.2034 12.9768C14.0919 12.8961 14.0076 12.7834 13.9617 12.6537C13.8604 12.3865 13.9225 12.1346 14.0458 12.0878C14.0614 12.082 14.0779 12.0791 14.0946 12.0792C14.1478 12.0829 14.199 12.1013 14.2424 12.1324C14.354 12.213 14.4384 12.3257 14.4843 12.4555C14.5854 12.7227 14.5233 12.9746 14.4 13.0214Z" fill="black"/>
<path d="M21.5268 2.80962L19.4141 0.696966C19.268 0.550834 19.0698 0.468735 18.8631 0.468731C18.6565 0.468727 18.4583 0.550817 18.3121 0.696943C18.166 0.843069 18.0839 1.04126 18.0839 1.24792C18.0839 1.45458 18.166 1.65277 18.3121 1.7989L18.8175 2.30426L17.2843 3.83745L16.1703 2.72342C16.0148 2.57251 15.8061 2.48885 15.5893 2.4905C15.3726 2.49215 15.1652 2.57898 15.012 2.73224C14.8587 2.8855 14.7719 3.09288 14.7702 3.30962C14.7686 3.52635 14.8522 3.73503 15.0032 3.89061L15.0609 3.94831L8.12274 10.8864C7.97226 11.0373 7.87927 11.2362 7.85987 11.4484C7.84046 11.6607 7.89586 11.8731 8.01648 12.0489L7.13485 12.9305C7.02499 13.0407 6.95146 13.1819 6.92412 13.3352C6.89677 13.4884 6.91692 13.6463 6.98185 13.7877L5.84888 14.9207C5.69114 15.079 5.58919 15.2843 5.55842 15.5056C5.52766 15.727 5.56976 15.9523 5.67835 16.1476L3.13632 18.6896C3.11021 18.7157 3.08949 18.7467 3.07536 18.7809C3.06123 18.815 3.05395 18.8516 3.05396 18.8885C3.05396 18.9254 3.06123 18.962 3.07537 18.9961C3.08951 19.0302 3.11023 19.0613 3.13635 19.0874C3.16246 19.1135 3.19347 19.1342 3.22759 19.1483C3.26172 19.1625 3.29829 19.1697 3.33523 19.1697C3.37216 19.1697 3.40874 19.1625 3.44286 19.1483C3.47698 19.1342 3.50799 19.1135 3.5341 19.0873L6.07609 16.5453C6.27131 16.6542 6.4967 16.6964 6.7181 16.6656C6.93949 16.6349 7.14482 16.5328 7.30295 16.3748L8.43596 15.2418C8.57734 15.307 8.73531 15.3273 8.88857 15.2999C9.04184 15.2725 9.18303 15.1989 9.29312 15.0888L10.1747 14.2071C10.3504 14.3279 10.5628 14.3835 10.7751 14.3641C10.9875 14.3447 11.1863 14.2516 11.3372 14.1009L11.9354 13.5027C12.0161 14.3891 12.3477 15.2342 12.8914 15.9389C13.4351 16.6436 14.1684 17.1788 15.0053 17.4817C15.8422 17.7847 16.7482 17.8429 17.617 17.6495C18.4858 17.4561 19.2815 17.0191 19.9109 16.3898C20.5403 15.7604 20.9773 14.9648 21.1708 14.096C21.3642 13.2272 21.3061 12.3213 21.0032 11.4843C20.7003 10.6474 20.1652 9.91407 19.4606 9.3703C18.7559 8.82654 17.9109 8.49483 17.0245 8.41404L18.2754 7.16323L18.333 7.22084C18.4885 7.37175 18.6972 7.45541 18.914 7.45376C19.1307 7.45211 19.3381 7.36528 19.4913 7.21202C19.6446 7.05876 19.7314 6.85138 19.7331 6.63464C19.7347 6.41791 19.6511 6.20923 19.5002 6.05365L18.3863 4.93939L19.9194 3.40625L20.4248 3.91161C20.5711 4.05751 20.7692 4.13945 20.9758 4.13945C21.1824 4.13945 21.3805 4.05751 21.5267 3.91161C21.6726 3.76536 21.7546 3.56721 21.7546 3.36062C21.7546 3.15404 21.6727 2.95589 21.5268 2.80962ZM6.90521 15.9771C6.86205 16.0207 6.8107 16.0554 6.75409 16.0791C6.69749 16.1028 6.63676 16.1151 6.57539 16.1153C6.51401 16.1155 6.45321 16.1035 6.39648 16.0801C6.33975 16.0567 6.2882 16.0223 6.24481 15.9789C6.20141 15.9355 6.16702 15.884 6.14361 15.8272C6.1202 15.7705 6.10824 15.7097 6.10841 15.6483C6.10857 15.587 6.12087 15.5262 6.14459 15.4696C6.16831 15.413 6.20298 15.3617 6.24662 15.3185L7.34542 14.2197L8.00401 14.8783L6.90521 15.9771ZM8.89538 14.691C8.85781 14.7285 8.8069 14.7496 8.75382 14.7496C8.70074 14.7496 8.64984 14.7285 8.61226 14.691L7.53259 13.6114C7.4951 13.5738 7.47404 13.5229 7.47404 13.4698C7.47404 13.4167 7.4951 13.3658 7.53259 13.3282L8.40296 12.4579L9.76571 13.8206L8.89538 14.691ZM20.7204 13.0781C20.7204 13.8931 20.4787 14.6899 20.0259 15.3676C19.573 16.0453 18.9294 16.5734 18.1764 16.8853C17.4234 17.1972 16.5949 17.2789 15.7955 17.1198C14.9961 16.9608 14.2618 16.5684 13.6855 15.992C13.1092 15.4157 12.7167 14.6814 12.5577 13.8821C12.3987 13.0827 12.4803 12.2541 12.7922 11.5011C13.1041 10.7481 13.6323 10.1045 14.31 9.65169C14.9877 9.19887 15.7844 8.95718 16.5994 8.95718C17.692 8.95841 18.7395 9.39297 19.512 10.1655C20.2846 10.9381 20.7191 11.9855 20.7204 13.0781ZM16.2344 8.40884C15.1224 8.49728 14.0784 8.97908 13.2896 9.7678C12.5007 10.5565 12.0188 11.6005 11.9302 12.7125L10.9396 13.703C10.9071 13.7356 10.8684 13.7614 10.8259 13.7791C10.7833 13.7967 10.7377 13.8057 10.6917 13.8057C10.6457 13.8057 10.6001 13.7967 10.5575 13.7791C10.515 13.7614 10.4764 13.7356 10.4438 13.703L8.52053 11.7798C8.45485 11.714 8.41797 11.6248 8.41797 11.5319C8.41797 11.4389 8.45485 11.3498 8.52053 11.284L9.11546 10.689L9.9729 11.5465C10.0256 11.5992 10.0972 11.6288 10.1718 11.6288C10.2464 11.6288 10.3179 11.5992 10.3707 11.5464C10.4234 11.4937 10.453 11.4222 10.453 11.3476C10.453 11.273 10.4234 11.2014 10.3706 11.1487L9.5132 10.2913L9.97224 9.83225L10.3015 10.1615C10.3543 10.2143 10.4258 10.2439 10.5004 10.2439C10.575 10.2439 10.6466 10.2143 10.6993 10.1615C10.752 10.1088 10.7817 10.0372 10.7817 9.96264C10.7817 9.88804 10.752 9.81651 10.6993 9.76376L10.37 9.43451L10.829 8.97542L11.6865 9.83286C11.7394 9.88489 11.8107 9.91392 11.8849 9.91362C11.9591 9.91332 12.0302 9.88371 12.0826 9.83124C12.1351 9.77878 12.1647 9.70771 12.165 9.63352C12.1653 9.55932 12.1363 9.48801 12.0842 9.43512L11.2266 8.57783L11.686 8.11873L12.0152 8.44803C12.068 8.50077 12.1395 8.5304 12.2141 8.53039C12.2887 8.53039 12.3603 8.50075 12.413 8.44801C12.4657 8.39526 12.4954 8.32372 12.4954 8.24912C12.4954 8.17453 12.4657 8.10299 12.413 8.05025L12.0837 7.721L12.5428 7.26195L13.4002 8.11939C13.4263 8.14585 13.4573 8.1669 13.4915 8.18132C13.5257 8.19574 13.5624 8.20324 13.5996 8.20339C13.6367 8.20354 13.6735 8.19634 13.7078 8.1822C13.7421 8.16806 13.7733 8.14727 13.7996 8.12101C13.8258 8.09476 13.8466 8.06357 13.8608 8.02924C13.8749 7.99491 13.8821 7.95812 13.8819 7.92099C13.8818 7.88387 13.8743 7.84714 13.8599 7.81293C13.8455 7.77871 13.8244 7.74769 13.7979 7.72165L12.9404 6.86426L13.3994 6.40522L13.7287 6.73447C13.7816 6.7865 13.8529 6.81553 13.9271 6.81523C14.0013 6.81493 14.0723 6.78532 14.1248 6.73285C14.1773 6.68039 14.2069 6.60932 14.2072 6.53512C14.2075 6.46093 14.1784 6.38962 14.1264 6.33673L13.7972 6.00748L14.2562 5.54844L15.1136 6.40587C15.1664 6.45862 15.2379 6.48824 15.3125 6.48824C15.3871 6.48823 15.4587 6.4586 15.5114 6.40585C15.5641 6.3531 15.5938 6.28156 15.5938 6.20697C15.5938 6.13237 15.5641 6.06083 15.5114 6.00809L14.654 5.15065L15.4584 4.34619L17.8776 6.76531L16.2344 8.40884ZM19.1027 6.45134C19.1519 6.50068 19.1795 6.56753 19.1795 6.63722C19.1795 6.70692 19.1519 6.77377 19.1027 6.82311C19.0533 6.87233 18.9864 6.89997 18.9167 6.89997C18.847 6.89997 18.7802 6.87233 18.7308 6.82311L15.4007 3.49301C15.3514 3.4437 15.3237 3.37682 15.3237 3.30709C15.3238 3.23736 15.3515 3.17048 15.4008 3.12118C15.4501 3.07187 15.517 3.04417 15.5867 3.04418C15.6564 3.04418 15.7233 3.07189 15.7726 3.1212L19.1027 6.45134ZM17.9885 4.54165L17.6821 4.23519L19.2152 2.70204L19.5217 3.00851L17.9885 4.54165ZM21.1292 3.51383C21.0885 3.55442 21.0334 3.57722 20.9759 3.57722C20.9185 3.57722 20.8634 3.55442 20.8227 3.51383L18.7101 1.40122C18.6694 1.36058 18.6466 1.30545 18.6466 1.24797C18.6466 1.1905 18.6694 1.13537 18.7101 1.09472C18.7507 1.05408 18.8058 1.03124 18.8633 1.03124C18.9208 1.03123 18.9759 1.05406 19.0165 1.0947L21.1292 3.20736C21.1698 3.24805 21.1925 3.30317 21.1925 3.36063C21.1925 3.41809 21.1696 3.47319 21.129 3.51383H21.1292Z" fill="black"/>
<path d="M3.66477 23.5313C4.04117 23.5309 4.40202 23.3811 4.66818 23.115C4.93433 22.8488 5.08404 22.488 5.08448 22.1116C5.08448 22.1061 5.08448 22.1006 5.08401 22.0952C5.08068 21.7568 4.97488 21.5053 4.85713 21.2562C4.66354 20.8478 3.92859 19.7619 3.89741 19.7158C3.87164 19.6778 3.83695 19.6467 3.79637 19.6252C3.75579 19.6037 3.71056 19.5924 3.66463 19.5924C3.61871 19.5924 3.57349 19.6037 3.53291 19.6252C3.49233 19.6467 3.45764 19.6778 3.43185 19.7158C3.40054 19.7619 2.66282 20.8507 2.47176 21.2569C2.36212 21.4898 2.24512 21.7672 2.24512 22.1114C2.2455 22.4879 2.39519 22.8487 2.66134 23.1149C2.92749 23.3811 3.28836 23.5309 3.66477 23.5313ZM2.98068 21.4965C3.08484 21.2751 3.41362 20.7612 3.66445 20.3805C3.91476 20.7606 4.24298 21.2739 4.34882 21.4971C4.46601 21.7446 4.52165 21.8998 4.52165 22.1116C4.52165 22.1159 4.52165 22.1202 4.52198 22.1245C4.51863 22.3508 4.42597 22.5665 4.2642 22.7247C4.10242 22.8829 3.88466 22.9707 3.6584 22.969C3.43214 22.9673 3.21573 22.8762 3.05636 22.7156C2.89699 22.555 2.80759 22.3379 2.80766 22.1116C2.80781 21.8834 2.89307 21.6826 2.98068 21.4965Z" fill="black"/>
<path d="M26.0151 10.8485C26.1768 11.0121 26.5369 10.9579 26.5757 10.7005C26.8169 9.10299 28.024 7.75524 28.9375 6.48526C29.1908 6.13333 28.6084 5.79902 28.3584 6.14675C27.5237 7.30716 26.4716 8.5282 26.06 9.9363C25.5896 9.45559 25.1173 8.97945 24.5898 8.55704C24.2557 8.28943 23.7778 8.7609 24.1155 9.03133C24.8028 9.58188 25.3968 10.2239 26.0151 10.8485Z" fill="#71F84F"/>
</svg>
