<svg width="80" height="82" viewBox="0 0 80 82" fill="none" xmlns="http://www.w3.org/2000/svg">
<rect width="80" height="82" rx="20" fill="#D4F8DC" fill-opacity="0.55"/>
<path d="M51.907 38.8522C51.9023 38.8522 51.8977 38.8522 51.893 38.8522H46.1984V33.345C46.2061 32.2343 45.2789 31.3277 44.1276 31.3203C44.1229 31.3203 44.1181 31.3203 44.1136 31.3203H35.8864C34.7351 31.3203 33.8017 32.2208 33.8017 33.3315V38.8387H28.107C26.9557 38.8312 26.0159 39.7255 26.0082 40.8362C26.0082 40.8453 26.0082 40.8542 26.0082 40.8634V48.7867C26.0082 49.8974 26.9417 50.7978 28.093 50.7978H33.8017V56.2915C33.794 57.4022 34.7211 58.3088 35.8724 58.3162C35.8772 58.3162 35.8819 58.3162 35.8864 58.3162H44.0996C45.2509 58.3162 46.1844 57.4157 46.1844 56.305V50.7978H51.893C53.0444 50.8053 53.9841 49.9109 53.9918 48.8001C53.9918 48.7956 53.9918 48.791 53.9918 48.7867V40.8634C53.9918 39.7526 53.0585 38.8522 51.907 38.8522ZM51.1934 48.0983H44.7992C44.0265 48.0983 43.4 48.7026 43.4 49.4481V55.6166H36.6V49.4481C36.6 48.7026 35.9735 48.0983 35.2008 48.0983H28.8066V41.5518H35.2008C35.9735 41.5518 36.6 40.9474 36.6 40.202V34.0199H43.386V40.1885C43.386 40.9339 44.0125 41.5383 44.7852 41.5383H51.1934V48.0983Z" fill="black"/>
<path d="M64.3457 21.2239H52.8165V16.4726C52.889 14.3045 51.1259 12.4901 48.8785 12.4201C48.7639 12.4165 48.6494 12.4175 48.535 12.4233H31.465C29.2193 12.3104 27.304 13.975 27.1869 16.1413C27.1809 16.2516 27.1797 16.3621 27.1835 16.4726V21.1969H15.6543C11.2049 21.1969 6 23.6401 6 30.5105V59.8685C6 66.739 11.2049 69.1821 15.6543 69.1821H64.3457C68.7951 69.1821 74 66.739 74 59.8685V30.5375C74 23.6671 68.8091 21.2239 64.3457 21.2239ZM29.9819 16.4726C29.9819 16.0812 29.9819 15.0284 31.479 15.0284H48.535C50.0321 15.0284 50.0321 16.0677 50.0321 16.4726V21.1969H29.9819V16.4726ZM71.2016 59.8685C71.2016 65.8346 66.4165 66.4825 64.3457 66.4825H15.6543C13.5975 66.4825 8.79835 65.8346 8.79835 59.8685V30.5375C8.79835 24.5714 13.5835 23.9235 15.6543 23.9235H64.3457C66.4025 23.9235 71.2016 24.5714 71.2016 30.5375V59.8685Z" fill="black"/>
</svg>
