<svg width="80" height="82" viewBox="0 0 80 82" fill="none" xmlns="http://www.w3.org/2000/svg">
<rect width="80" height="82" rx="20" fill="#FFC7C7" fill-opacity="0.55"/>
<path d="M55.2433 18.5458C51.9027 15.3981 46.1784 14.6797 41 19.8582C35.8291 14.6848 30.0973 15.3981 26.7567 18.5433C22.8652 22.2063 22.7967 28.3341 26.5485 32.0859L41 46.5399L55.4514 32.0885C59.2033 28.3366 59.1347 22.2088 55.2433 18.5458ZM53.6567 30.2913L41 42.9506L28.3432 30.2938C25.5966 27.5446 25.6499 23.0744 28.498 20.3938C29.7114 19.2464 31.336 18.6169 33.0723 18.6169C36.7074 18.6169 38.3422 20.7898 41 23.4476C43.5867 20.8609 45.2519 18.6169 48.9276 18.6169C50.6639 18.6169 52.2885 19.2464 53.5044 20.3913C56.345 23.0668 56.411 27.537 53.6567 30.2913Z" fill="black"/>
<path d="M69.6618 18.6168C67.4254 18.6168 65.5697 20.2922 65.3464 22.5159L63.7395 38.3838C62.9653 38.5488 62.2545 38.9245 61.7037 39.4754L48.8819 51.4112C47.1177 53.0181 46.0947 55.3103 46.0769 57.7066V71.9245H61.3077V65.2331C61.3077 64.2 61.7418 63.1947 62.5287 62.4484L72.1621 52.7261C73.3476 51.528 74 49.9414 74 48.2584V22.9551C74 20.5638 72.053 18.6168 69.6618 18.6168ZM71.4615 48.2584C71.4615 49.2687 71.0706 50.2207 70.3573 50.9416L60.7543 60.6334C59.4927 61.8265 58.7692 63.5019 58.7692 65.2331V69.3861H48.6154V57.7218C48.6281 56.0388 49.3464 54.4269 50.603 53.2846L63.4654 41.3056C63.8106 40.9604 64.2827 40.7903 64.7828 40.8411C65.0595 40.8664 65.4581 40.9654 65.7982 41.3056C66.1104 41.6178 66.2831 42.0341 66.2831 42.4733C66.2831 42.9124 66.1079 43.3287 65.8414 43.5978L55.9388 52.5789L57.6447 54.4574L67.5929 45.4331C68.3849 44.6411 68.8215 43.5902 68.8215 42.4707C68.8215 41.3513 68.3874 40.3004 67.5954 39.5109C67.2096 39.12 66.7603 38.8204 66.2678 38.6148L67.8696 22.7748C67.9635 21.8508 68.7352 21.1553 69.6618 21.1553C70.6543 21.1553 71.4615 21.9625 71.4615 22.9551V48.2584Z" fill="black"/>
<path d="M33.1181 51.4112L20.2963 39.4754C19.7455 38.9245 19.0347 38.5463 18.2605 38.3838L16.6536 22.5159C16.4302 20.2922 14.5746 18.6168 12.3382 18.6168C9.947 18.6168 8 20.5638 8 22.9551V48.2584C8 49.9414 8.65238 51.528 9.83785 52.7236L19.4713 62.4459C20.2582 63.1922 20.6923 64.2 20.6923 65.2331V71.9245H35.9231V57.7066C35.9078 55.3103 34.8823 53.0206 33.1181 51.4112ZM33.3846 69.3861H23.2308V65.2331C23.2308 63.5044 22.5073 61.8265 21.2457 60.6334L11.6427 50.9416C10.9294 50.2207 10.5385 49.2687 10.5385 48.2584V22.9551C10.5385 21.9625 11.3457 21.1553 12.3382 21.1553C13.2648 21.1553 14.0365 21.8508 14.1304 22.7697L15.7322 38.6097C15.2397 38.8179 14.7904 39.1174 14.4045 39.5058C13.6151 40.2953 13.1785 41.3462 13.1785 42.4657C13.1785 43.5851 13.6151 44.6361 14.4071 45.4281L24.3553 54.4523L26.0612 52.5738L16.1586 43.5927C15.8895 43.3237 15.7169 42.9099 15.7169 42.4682C15.7169 42.0265 15.8895 41.6127 16.2018 41.3005C16.5394 40.9604 16.9405 40.8614 17.2172 40.836C17.7198 40.7877 18.1894 40.9553 18.5346 41.3005L31.397 53.2795C32.6535 54.4218 33.3719 56.0337 33.3846 57.7167V69.3861Z" fill="black"/>
</svg>
