<svg width="80" height="82" viewBox="0 0 80 82" fill="none" xmlns="http://www.w3.org/2000/svg">
<path d="M0 20C0 8.95431 8.95431 0 20 0H60C71.0457 0 80 8.95431 80 20V62C80 73.0457 71.0457 82 60 82H20C8.95431 82 0 73.0457 0 62V20Z" fill="#E5E4FF" fill-opacity="0.97"/>
<path d="M55.1889 26.0281C56.071 26.0281 56.786 25.313 56.786 24.4309C56.786 23.5488 56.071 22.8337 55.1889 22.8337C54.3068 22.8337 53.5917 23.5488 53.5917 24.4309C53.5917 25.313 54.3068 26.0281 55.1889 26.0281Z" fill="black"/>
<path d="M66.8672 23.8985C64.4008 23.8985 62.2836 24.0721 60.2388 22.0273L57.5924 19.381C56.3939 18.1828 54.7693 17.5098 53.0747 17.5098H45.6451H45.6004C43.9029 17.5098 42.2751 18.1824 41.0725 19.3809L41.0335 19.4197L36.0486 24.4046C35.0092 25.4438 34.4254 26.8534 34.4254 28.3233V29.9963C34.4254 33.028 36.8316 36.1553 39.8306 36.6025C40.1633 36.6521 40.4914 36.676 40.8142 36.676V37.1014C35.5661 40.1259 24.7981 46.2251 22.666 48.3412C20.8717 50.1362 19.5183 52.974 19.5183 55.8423C19.5183 57.1225 19.6858 58.4246 20.4302 60.1175L14.1944 60.1014C12.4303 60.1014 11 61.5317 11 63.2958C11 65.0599 12.4303 66.4902 14.1944 66.4902H40.7825C42.3645 66.4902 43.4611 64.7913 42.6963 63.4065C42.0153 62.1738 40.939 61.1904 39.6386 60.6261C40.3702 59.1732 40.7949 57.9708 42.6298 57.9708H45.0733V64.3606C45.0733 65.5367 46.0269 66.4902 47.2029 66.4902H55.1259C56.759 66.4902 57.8144 64.709 56.9898 63.2989C56.0082 61.6193 54.2749 60.433 52.2507 60.1809L52.7243 56.3921C55.2843 54.8207 57.1706 52.2099 57.6895 49.1874C58.4153 44.9582 56.6149 41.1387 53.5915 38.8539V34.5463H59.9803C62.3231 34.5463 65.2257 32.9027 66.4309 30.8938C66.939 30.0476 69.0051 26.9787 68.9999 26.0205C68.9942 24.9142 68.1088 23.8985 66.8672 23.8985ZM40.8049 34.5237C38.2012 34.5237 36.555 32.3181 36.555 30.0505V28.3238C36.555 27.4385 36.8929 26.5717 37.5543 25.9106L42.5393 20.9259C43.2084 20.2569 44.1064 19.8117 45.0733 19.6931V30.2873C45.0733 32.5653 43.239 34.5237 40.8049 34.5237ZM14.1944 64.3606C13.6074 64.3606 13.1296 63.8829 13.1296 63.2958C13.1296 62.7087 13.6074 62.231 14.1887 62.231C21.9007 62.251 19.9883 62.2459 21.7159 62.2504C22.5047 63.2862 22.633 63.4614 23.8409 64.3606H14.1944ZM64.6051 29.7983C63.7409 31.2384 61.6596 32.4168 59.9804 32.4168H54.5488C53.1627 32.4168 51.9918 31.524 51.5505 30.2873H49.3325C49.605 31.6245 50.391 32.7666 51.4621 33.5357V39.9139C54.5296 42.2328 56.2692 44.874 55.5907 48.8273C55.0516 51.9664 53.1527 53.6304 50.7383 55.1125C50.2267 59.2054 50.0717 60.4431 49.8732 62.0311C52.021 62.2985 53.9556 62.3026 55.1259 64.3607C50.6728 64.3607 51.646 64.3607 47.2029 64.3607C47.2029 59.2553 47.2029 58.8438 47.2029 53.7128H45.0733V55.8413C44.5093 55.8413 44.0605 55.8413 42.6298 55.8413C41.9725 55.8413 41.3596 56.0157 40.7784 56.2613C40.8829 53.3674 39.8358 50.4541 37.6947 48.3129L36.189 49.8186C39.3464 52.9776 39.1531 57.5986 37.3536 60.4177L36.7151 61.6798C38.3717 62.3982 39.9594 62.8467 40.7824 64.3607H30.1599C25.4415 64.3565 21.7153 60.556 21.6592 55.9571C21.614 53.4093 22.7698 50.7739 25.1094 49.0311C27.4533 47.2852 40.4113 39.7913 42.9438 38.332C42.9438 37.7529 42.9448 36.8356 42.9422 36.2852C45.4186 35.4055 47.2029 33.0654 47.2029 30.2873V19.6393H53.0754C54.2051 19.6393 55.2882 20.088 56.0867 20.8868L58.7326 23.5329C60.2491 25.0494 62.2431 25.8951 64.3716 25.9904C64.5967 26.7647 65.1203 27.4034 65.8149 27.7818L64.6051 29.7983Z" fill="black"/>
</svg>
