<svg width="164" height="56" viewBox="0 0 164 56" fill="none" xmlns="http://www.w3.org/2000/svg">
<path d="M65.776 18.8V30H62.608V25.632H58.288V30H55.12V18.8H58.288V23.008H62.608V18.8H65.776ZM76.7146 27.824H71.9786L71.0986 30H67.8666L72.8106 18.8H75.9306L80.8906 30H77.5946L76.7146 27.824ZM75.7866 25.488L74.3466 21.904L72.9066 25.488H75.7866ZM88.1087 18.8C89.1221 18.8 90.0021 18.9707 90.7487 19.312C91.4954 19.6427 92.0714 20.1227 92.4768 20.752C92.8821 21.3707 93.0848 22.1013 93.0848 22.944C93.0848 23.7867 92.8821 24.5173 92.4768 25.136C92.0714 25.7547 91.4954 26.2347 90.7487 26.576C90.0021 26.9067 89.1221 27.072 88.1087 27.072H86.1567V30H82.9887V18.8H88.1087ZM87.9167 24.576C88.5674 24.576 89.0581 24.4373 89.3888 24.16C89.7194 23.872 89.8848 23.4667 89.8848 22.944C89.8848 22.4213 89.7194 22.016 89.3888 21.728C89.0581 21.44 88.5674 21.296 87.9167 21.296H86.1567V24.576H87.9167ZM100.949 18.8C101.963 18.8 102.843 18.9707 103.589 19.312C104.336 19.6427 104.912 20.1227 105.317 20.752C105.723 21.3707 105.925 22.1013 105.925 22.944C105.925 23.7867 105.723 24.5173 105.317 25.136C104.912 25.7547 104.336 26.2347 103.589 26.576C102.843 26.9067 101.963 27.072 100.949 27.072H98.9974V30H95.8294V18.8H100.949ZM100.757 24.576C101.408 24.576 101.899 24.4373 102.229 24.16C102.56 23.872 102.725 23.4667 102.725 22.944C102.725 22.4213 102.56 22.016 102.229 21.728C101.899 21.44 101.408 21.296 100.757 21.296H98.9974V24.576H100.757ZM114.67 25.984V30H111.502V25.936L107.23 18.8H110.574L113.23 23.248L115.886 18.8H118.958L114.67 25.984ZM131.94 18.8C132.953 18.8 133.833 18.9707 134.58 19.312C135.327 19.6427 135.903 20.1227 136.308 20.752C136.713 21.3707 136.916 22.1013 136.916 22.944C136.916 23.7867 136.713 24.5173 136.308 25.136C135.903 25.7547 135.327 26.2347 134.58 26.576C133.833 26.9067 132.953 27.072 131.94 27.072H129.988V30H126.82V18.8H131.94ZM131.748 24.576C132.399 24.576 132.889 24.4373 133.22 24.16C133.551 23.872 133.716 23.4667 133.716 22.944C133.716 22.4213 133.551 22.016 133.22 21.728C132.889 21.44 132.399 21.296 131.748 21.296H129.988V24.576H131.748ZM148.653 27.552V30H139.661V18.8H148.445V21.248H142.797V23.136H147.773V25.504H142.797V27.552H148.653ZM153.995 21.312H150.555V18.8H160.587V21.312H157.163V30H153.995V21.312Z" fill="black"/>
<g filter="url(#filter0_d_235_618)">
<path d="M7 9C7 5.68629 9.68629 3 13 3H39C42.3137 3 45 5.68629 45 9V35C45 38.3137 42.3137 41 39 41H30.0086C29.3453 41 28.6911 41.1544 28.0978 41.4511L27.1317 41.9341C26.4268 42.2866 25.5908 42.2545 24.915 41.849V41.849C24.0689 41.3414 22.9935 41.4286 22.2403 42.0659L20.293 43.7136C18.7896 44.9857 16.4729 44.2157 16.03 42.2967V42.2967C15.7284 40.9895 14.4914 40.1187 13.159 40.2754L11.7309 40.4434C9.21265 40.7397 7 38.7721 7 36.2365V9Z" fill="black"/>
</g>
<g clip-path="url(#clip0_235_618)">
<path d="M30.4046 22.0623C29.311 20.6113 27.5767 19.827 25.7651 19.9646C23.9535 20.1021 22.3575 21.1394 21.4958 22.7389L19.4189 26.5932C19.0743 27.2326 18.9475 27.9508 19.0519 28.6696C19.1564 29.3886 19.4825 30.0408 19.995 30.5561C20.5078 31.0709 21.1587 31.3999 21.8773 31.5077C22.5959 31.6155 23.3148 31.4916 23.9561 31.1496L23.999 31.1265C25.6137 30.2806 27.5218 30.1423 29.2424 30.7481C29.6862 30.9043 30.1485 30.9652 30.6077 30.9304C30.8574 30.9114 31.1064 30.864 31.3509 30.7884C32.045 30.5734 32.6388 30.1499 33.0681 29.5634C33.497 28.9771 33.7211 28.283 33.7159 27.5563C33.7108 26.8296 33.4769 26.1389 33.0397 25.5586L30.4046 22.0623Z" fill="#FFDC81"/>
<path d="M19.774 22.8648C20.4545 22.5423 20.944 21.9371 21.1525 21.1605C21.351 20.4215 21.2685 19.6104 20.9202 18.8766C20.5717 18.1433 19.9954 17.5668 19.2973 17.2532C18.564 16.9239 17.7856 16.9203 17.1064 17.2432C15.7398 17.8914 15.2259 19.68 15.9611 21.2313C16.548 22.4659 17.7527 23.1819 18.9089 23.094C19.2042 23.0716 19.4963 22.9968 19.774 22.8648Z" fill="#FFDC81"/>
<path d="M24.1267 19.6381C25.8865 19.5045 27.1944 17.7645 27.0422 15.7595C26.8899 13.754 25.3342 12.2312 23.5743 12.3648C21.8146 12.4985 20.5069 14.2387 20.6592 16.2443C20.8115 18.2493 22.367 19.7718 24.1267 19.6381Z" fill="#FFDC81"/>
<path d="M29.7065 20.1129L29.7067 20.1129C29.9842 20.1821 30.2636 20.2041 30.5387 20.1832C31.8221 20.0857 33.0019 19.0566 33.3701 17.5848C33.5822 16.7375 33.4978 15.8651 33.1324 15.1284C32.75 14.3571 32.1095 13.8249 31.3287 13.6296C30.5478 13.4343 29.7321 13.6025 29.0316 14.1028C28.3625 14.5808 27.8774 15.3108 27.6657 16.158C27.2187 17.9453 28.1342 19.7194 29.7065 20.1129V20.1129Z" fill="#FFDC81"/>
<path d="M36.3955 19.178L36.395 19.1776C35.1133 18.3732 33.3278 18.8997 32.4145 20.3515C31.5022 21.804 31.8016 23.6408 33.0816 24.4459C33.5484 24.7398 34.0824 24.8566 34.6169 24.816C35.5484 24.7453 36.4814 24.1962 37.0628 23.2727C37.9749 21.8203 37.6757 19.9835 36.3955 19.178V19.178Z" fill="#FFDC81"/>
</g>
<defs>
<filter id="filter0_d_235_618" x="0" y="0" width="52" height="55.3381" filterUnits="userSpaceOnUse" color-interpolation-filters="sRGB">
<feFlood flood-opacity="0" result="BackgroundImageFix"/>
<feColorMatrix in="SourceAlpha" type="matrix" values="0 0 0 0 0 0 0 0 0 0 0 0 0 0 0 0 0 0 127 0" result="hardAlpha"/>
<feOffset dy="4"/>
<feGaussianBlur stdDeviation="3.5"/>
<feColorMatrix type="matrix" values="0 0 0 0 0 0 0 0 0 0 0 0 0 0 0 0 0 0 0.36 0"/>
<feBlend mode="normal" in2="BackgroundImageFix" result="effect1_dropShadow_235_618"/>
<feBlend mode="normal" in="SourceGraphic" in2="effect1_dropShadow_235_618" result="shape"/>
</filter>
<clipPath id="clip0_235_618">
<rect width="21.7908" height="21.7908" fill="white" transform="translate(15 11.6502) rotate(-4.34307)"/>
</clipPath>
</defs>
</svg>
